<mxfile host="app.diagrams.net" agent="Mozilla/5.0 (Windows NT 10.0; Win64; x64) AppleWebKit/537.36 (KHTML, like Gecko) Chrome/128.0.0.0 Safari/537.36" version="24.7.12">
  <diagram name="Page-1" id="2YBvvXClWsGukQMizWep">
    <mxGraphModel dx="1687" dy="868" grid="1" gridSize="10" guides="1" tooltips="1" connect="1" arrows="1" fold="1" page="1" pageScale="1" pageWidth="850" pageHeight="1100" math="0" shadow="0">
      <root>
        <mxCell id="0" />
        <mxCell id="1" parent="0" />
        <mxCell id="Ue7K_BdycyQga9N8S7kU-29" value=":TelaSubscrição" style="shape=umlLifeline;perimeter=lifelinePerimeter;whiteSpace=wrap;html=1;container=0;dropTarget=0;collapsible=0;recursiveResize=0;outlineConnect=0;portConstraint=eastwest;newEdgeStyle={&quot;edgeStyle&quot;:&quot;elbowEdgeStyle&quot;,&quot;elbow&quot;:&quot;vertical&quot;,&quot;curved&quot;:0,&quot;rounded&quot;:0};" parent="1" vertex="1">
          <mxGeometry x="235" y="160" width="115" height="280" as="geometry" />
        </mxCell>
        <mxCell id="Ue7K_BdycyQga9N8S7kU-30" value="" style="html=1;points=[];perimeter=orthogonalPerimeter;outlineConnect=0;targetShapes=umlLifeline;portConstraint=eastwest;newEdgeStyle={&quot;edgeStyle&quot;:&quot;elbowEdgeStyle&quot;,&quot;elbow&quot;:&quot;vertical&quot;,&quot;curved&quot;:0,&quot;rounded&quot;:0};" parent="Ue7K_BdycyQga9N8S7kU-29" vertex="1">
          <mxGeometry x="52.5" y="100" width="10" height="50" as="geometry" />
        </mxCell>
        <mxCell id="Ue7K_BdycyQga9N8S7kU-51" value="" style="html=1;points=[];perimeter=orthogonalPerimeter;outlineConnect=0;targetShapes=umlLifeline;portConstraint=eastwest;newEdgeStyle={&quot;edgeStyle&quot;:&quot;elbowEdgeStyle&quot;,&quot;elbow&quot;:&quot;vertical&quot;,&quot;curved&quot;:0,&quot;rounded&quot;:0};" parent="Ue7K_BdycyQga9N8S7kU-29" vertex="1">
          <mxGeometry x="52.5" y="190" width="10" height="70" as="geometry" />
        </mxCell>
        <mxCell id="Ue7K_BdycyQga9N8S7kU-52" value="" style="endArrow=classic;html=1;rounded=0;" parent="Ue7K_BdycyQga9N8S7kU-29" target="Ue7K_BdycyQga9N8S7kU-51" edge="1">
          <mxGeometry width="50" height="50" relative="1" as="geometry">
            <mxPoint x="-135" y="189.70999999999998" as="sourcePoint" />
            <mxPoint x="35" y="190" as="targetPoint" />
          </mxGeometry>
        </mxCell>
        <mxCell id="Ue7K_BdycyQga9N8S7kU-53" value="5. Informa Praias" style="edgeLabel;html=1;align=center;verticalAlign=middle;resizable=0;points=[];" parent="Ue7K_BdycyQga9N8S7kU-52" vertex="1" connectable="0">
          <mxGeometry x="-0.0933" y="-1" relative="1" as="geometry">
            <mxPoint y="-11" as="offset" />
          </mxGeometry>
        </mxCell>
        <mxCell id="Ue7K_BdycyQga9N8S7kU-32" value=":ControladorSubscrição" style="shape=umlLifeline;perimeter=lifelinePerimeter;whiteSpace=wrap;html=1;container=0;dropTarget=0;collapsible=0;recursiveResize=0;outlineConnect=0;portConstraint=eastwest;newEdgeStyle={&quot;edgeStyle&quot;:&quot;elbowEdgeStyle&quot;,&quot;elbow&quot;:&quot;vertical&quot;,&quot;curved&quot;:0,&quot;rounded&quot;:0};" parent="1" vertex="1">
          <mxGeometry x="450" y="160" width="140" height="280" as="geometry" />
        </mxCell>
        <mxCell id="Ue7K_BdycyQga9N8S7kU-33" value="" style="html=1;points=[];perimeter=orthogonalPerimeter;outlineConnect=0;targetShapes=umlLifeline;portConstraint=eastwest;newEdgeStyle={&quot;edgeStyle&quot;:&quot;elbowEdgeStyle&quot;,&quot;elbow&quot;:&quot;vertical&quot;,&quot;curved&quot;:0,&quot;rounded&quot;:0};" parent="Ue7K_BdycyQga9N8S7kU-32" vertex="1">
          <mxGeometry x="65" y="110" width="10" height="40" as="geometry" />
        </mxCell>
        <mxCell id="Ue7K_BdycyQga9N8S7kU-54" value="" style="html=1;points=[];perimeter=orthogonalPerimeter;outlineConnect=0;targetShapes=umlLifeline;portConstraint=eastwest;newEdgeStyle={&quot;edgeStyle&quot;:&quot;elbowEdgeStyle&quot;,&quot;elbow&quot;:&quot;vertical&quot;,&quot;curved&quot;:0,&quot;rounded&quot;:0};" parent="Ue7K_BdycyQga9N8S7kU-32" vertex="1">
          <mxGeometry x="65" y="200" width="10" height="60" as="geometry" />
        </mxCell>
        <mxCell id="Ue7K_BdycyQga9N8S7kU-34" value="2. eventoCriarSubscrição()" style="html=1;verticalAlign=bottom;endArrow=block;edgeStyle=elbowEdgeStyle;elbow=vertical;curved=0;rounded=0;" parent="1" edge="1">
          <mxGeometry x="-0.009" relative="1" as="geometry">
            <mxPoint x="300" y="270" as="sourcePoint" />
            <Array as="points">
              <mxPoint x="400" y="270" />
            </Array>
            <mxPoint x="515" y="270" as="targetPoint" />
            <mxPoint as="offset" />
          </mxGeometry>
        </mxCell>
        <mxCell id="Ue7K_BdycyQga9N8S7kU-36" value="" style="endArrow=none;dashed=1;html=1;rounded=0;" parent="1" edge="1">
          <mxGeometry width="50" height="50" relative="1" as="geometry">
            <mxPoint x="100" y="440" as="sourcePoint" />
            <mxPoint x="100" y="190" as="targetPoint" />
          </mxGeometry>
        </mxCell>
        <mxCell id="Ue7K_BdycyQga9N8S7kU-37" value="Usuário" style="shape=umlActor;verticalLabelPosition=bottom;verticalAlign=top;html=1;outlineConnect=0;" parent="1" vertex="1">
          <mxGeometry x="91" y="117" width="20" height="50" as="geometry" />
        </mxCell>
        <mxCell id="Ue7K_BdycyQga9N8S7kU-38" value="" style="endArrow=classic;html=1;rounded=0;" parent="1" target="Ue7K_BdycyQga9N8S7kU-30" edge="1">
          <mxGeometry width="50" height="50" relative="1" as="geometry">
            <mxPoint x="100" y="260" as="sourcePoint" />
            <mxPoint x="250" y="270" as="targetPoint" />
          </mxGeometry>
        </mxCell>
        <mxCell id="Ue7K_BdycyQga9N8S7kU-39" value="1. Subscrever em Praias" style="edgeLabel;html=1;align=center;verticalAlign=middle;resizable=0;points=[];" parent="Ue7K_BdycyQga9N8S7kU-38" vertex="1" connectable="0">
          <mxGeometry x="-0.0933" y="-1" relative="1" as="geometry">
            <mxPoint x="5" y="-11" as="offset" />
          </mxGeometry>
        </mxCell>
        <mxCell id="Ue7K_BdycyQga9N8S7kU-40" value=":DAO Subscrição" style="shape=umlLifeline;perimeter=lifelinePerimeter;whiteSpace=wrap;html=1;container=0;dropTarget=0;collapsible=0;recursiveResize=0;outlineConnect=0;portConstraint=eastwest;newEdgeStyle={&quot;edgeStyle&quot;:&quot;elbowEdgeStyle&quot;,&quot;elbow&quot;:&quot;vertical&quot;,&quot;curved&quot;:0,&quot;rounded&quot;:0};" parent="1" vertex="1">
          <mxGeometry x="840" y="160" width="104" height="280" as="geometry" />
        </mxCell>
        <mxCell id="UffBnxwJxRkOGRR99ScX-26" value="" style="html=1;points=[];perimeter=orthogonalPerimeter;outlineConnect=0;targetShapes=umlLifeline;portConstraint=eastwest;newEdgeStyle={&quot;edgeStyle&quot;:&quot;elbowEdgeStyle&quot;,&quot;elbow&quot;:&quot;vertical&quot;,&quot;curved&quot;:0,&quot;rounded&quot;:0};" parent="Ue7K_BdycyQga9N8S7kU-40" vertex="1">
          <mxGeometry x="47" y="220" width="10" height="30" as="geometry" />
        </mxCell>
        <mxCell id="Ue7K_BdycyQga9N8S7kU-46" value="" style="endArrow=classic;html=1;rounded=0;dashed=1;" parent="1" edge="1">
          <mxGeometry width="50" height="50" relative="1" as="geometry">
            <mxPoint x="525" y="290" as="sourcePoint" />
            <mxPoint x="680" y="290" as="targetPoint" />
            <Array as="points">
              <mxPoint x="610" y="290" />
            </Array>
          </mxGeometry>
        </mxCell>
        <mxCell id="Ue7K_BdycyQga9N8S7kU-47" value="&amp;lt;&amp;lt; create &amp;gt;&amp;gt;&amp;nbsp;&lt;br&gt;&lt;div&gt;3. criarSubscrição()&lt;/div&gt;" style="edgeLabel;html=1;align=center;verticalAlign=middle;resizable=0;points=[];" parent="Ue7K_BdycyQga9N8S7kU-46" vertex="1" connectable="0">
          <mxGeometry x="-0.0247" y="-3" relative="1" as="geometry">
            <mxPoint x="-1" y="-23" as="offset" />
          </mxGeometry>
        </mxCell>
        <mxCell id="Ue7K_BdycyQga9N8S7kU-49" value="" style="endArrow=classic;html=1;rounded=0;dashed=1;" parent="1" edge="1">
          <mxGeometry width="50" height="50" relative="1" as="geometry">
            <mxPoint x="515" y="300" as="sourcePoint" />
            <mxPoint x="297.5" y="300" as="targetPoint" />
          </mxGeometry>
        </mxCell>
        <mxCell id="Ue7K_BdycyQga9N8S7kU-50" value="4. Atualiza Tela" style="edgeLabel;html=1;align=center;verticalAlign=middle;resizable=0;points=[];" parent="Ue7K_BdycyQga9N8S7kU-49" vertex="1" connectable="0">
          <mxGeometry x="-0.0247" y="-3" relative="1" as="geometry">
            <mxPoint x="-1" y="13" as="offset" />
          </mxGeometry>
        </mxCell>
        <mxCell id="UffBnxwJxRkOGRR99ScX-15" value=":Subscrição" style="shape=umlLifeline;perimeter=lifelinePerimeter;whiteSpace=wrap;html=1;container=0;dropTarget=0;collapsible=0;recursiveResize=0;outlineConnect=0;portConstraint=eastwest;newEdgeStyle={&quot;edgeStyle&quot;:&quot;elbowEdgeStyle&quot;,&quot;elbow&quot;:&quot;vertical&quot;,&quot;curved&quot;:0,&quot;rounded&quot;:0};" parent="1" vertex="1">
          <mxGeometry x="680" y="270" width="90" height="170" as="geometry" />
        </mxCell>
        <mxCell id="UffBnxwJxRkOGRR99ScX-16" value="" style="html=1;points=[];perimeter=orthogonalPerimeter;outlineConnect=0;targetShapes=umlLifeline;portConstraint=eastwest;newEdgeStyle={&quot;edgeStyle&quot;:&quot;elbowEdgeStyle&quot;,&quot;elbow&quot;:&quot;vertical&quot;,&quot;curved&quot;:0,&quot;rounded&quot;:0};" parent="UffBnxwJxRkOGRR99ScX-15" vertex="1">
          <mxGeometry x="40" y="100" width="10" height="40" as="geometry" />
        </mxCell>
        <mxCell id="Ue7K_BdycyQga9N8S7kU-64" value="" style="endArrow=classic;html=1;rounded=0;dashed=1;" parent="1" edge="1">
          <mxGeometry width="50" height="50" relative="1" as="geometry">
            <mxPoint x="514.9999999999998" y="410" as="sourcePoint" />
            <mxPoint x="297.5" y="410" as="targetPoint" />
          </mxGeometry>
        </mxCell>
        <mxCell id="Ue7K_BdycyQga9N8S7kU-65" value="9. Mensagem de Sucesso" style="edgeLabel;html=1;align=center;verticalAlign=middle;resizable=0;points=[];" parent="Ue7K_BdycyQga9N8S7kU-64" vertex="1" connectable="0">
          <mxGeometry x="-0.0247" y="-3" relative="1" as="geometry">
            <mxPoint x="-1" y="-7" as="offset" />
          </mxGeometry>
        </mxCell>
        <mxCell id="Ue7K_BdycyQga9N8S7kU-55" value="6. eventoIncluirInfoSubscrição" style="html=1;verticalAlign=bottom;endArrow=block;edgeStyle=elbowEdgeStyle;elbow=vertical;curved=0;rounded=0;" parent="1" source="Ue7K_BdycyQga9N8S7kU-51" edge="1">
          <mxGeometry x="-0.0082" relative="1" as="geometry">
            <mxPoint x="320" y="360" as="sourcePoint" />
            <Array as="points">
              <mxPoint x="400" y="360" />
            </Array>
            <mxPoint x="515" y="360" as="targetPoint" />
            <mxPoint as="offset" />
          </mxGeometry>
        </mxCell>
        <mxCell id="UffBnxwJxRkOGRR99ScX-20" value="7. InfoSubscriçãoUsuario()" style="html=1;verticalAlign=bottom;endArrow=block;edgeStyle=elbowEdgeStyle;elbow=vertical;curved=0;rounded=0;spacingBottom=-1;" parent="1" edge="1">
          <mxGeometry x="-0.0256" relative="1" as="geometry">
            <mxPoint x="525" y="370" as="sourcePoint" />
            <Array as="points">
              <mxPoint x="670" y="370" />
            </Array>
            <mxPoint x="720" y="370" as="targetPoint" />
            <mxPoint as="offset" />
          </mxGeometry>
        </mxCell>
        <mxCell id="Ue7K_BdycyQga9N8S7kU-56" value="8. SalvarSubscrição()" style="html=1;verticalAlign=bottom;endArrow=block;edgeStyle=elbowEdgeStyle;elbow=vertical;curved=0;rounded=0;" parent="1" edge="1">
          <mxGeometry x="-0.0586" relative="1" as="geometry">
            <mxPoint x="730" y="380.0033333333333" as="sourcePoint" />
            <Array as="points" />
            <mxPoint x="887" y="380.0033333333333" as="targetPoint" />
            <mxPoint as="offset" />
          </mxGeometry>
        </mxCell>
      </root>
    </mxGraphModel>
  </diagram>
</mxfile>
